<svg width="19" height="22" viewBox="0 0 19 22" fill="none" xmlns="http://www.w3.org/2000/svg">
<path d="M17.5 5.125C17.5 7.403 13.806 9.25 9.25 9.25C4.694 9.25 1 7.403 1 5.125M17.5 5.125C17.5 2.847 13.806 1 9.25 1C4.694 1 1 2.847 1 5.125M17.5 5.125V16.375C17.5 18.653 13.806 20.5 9.25 20.5C4.694 20.5 1 18.653 1 16.375V5.125M17.5 5.125V8.875M1 5.125V8.875M17.5 8.875V12.625C17.5 14.903 13.806 16.75 9.25 16.75C4.694 16.75 1 14.903 1 12.625V8.875M17.5 8.875C17.5 11.153 13.806 13 9.25 13C4.694 13 1 11.153 1 8.875" stroke="white" stroke-width="1.5" stroke-linecap="round" stroke-linejoin="round"/>
</svg>
