<svg width="9" height="12" viewBox="0 0 9 12" fill="none" xmlns="http://www.w3.org/2000/svg">
<path d="M0.0744949 6.13585L4.19022 11.8355C4.26462 11.9388 4.38499 11.9997 4.51294 12C4.64168 11.9997 4.76268 11.938 4.8374 11.8343L8.92659 6.1346C9.01284 6.01456 9.02389 5.85664 8.95549 5.7258C8.8882 5.59512 8.75141 5.5128 8.60229 5.5128L6.67783 5.5128L6.67798 0.393616C6.67798 0.176071 6.50027 7.35141e-07 6.28055 7.15932e-07L2.7199 0.000156807C2.50049 3.85469e-07 2.32263 0.176071 2.32247 0.394084L2.32247 5.51264L0.397372 5.51264C0.248887 5.51264 0.112564 5.59559 0.0440078 5.72658C-0.0242323 5.85742 -0.0123848 6.01565 0.0744949 6.13585Z"  fill="#B6B6B6"/>
</svg>
