<svg width="9" height="12" viewBox="0 0 9 12" fill="blue" xmlns="http://www.w3.org/2000/svg">
<path d="M8.9255 5.86415L4.80978 0.164489C4.73538 0.0611941 4.61501 0.000313014 4.48706 0C4.35832 0.000313014 4.23732 0.0619767 4.1626 0.165741L0.0734128 5.8654C-0.0128351 5.98545 -0.0238923 6.14336 0.0445058 6.2742C0.111798 6.40488 0.248594 6.48721 0.397711 6.48721H2.32218L2.32202 11.6064C2.32202 11.8239 2.49973 12 2.71945 12L6.2801 11.9998C6.49951 12 6.67737 11.8239 6.67753 11.6059L6.67753 6.48736H8.60263C8.75111 6.48736 8.88744 6.40441 8.95599 6.27342C9.02423 6.14258 9.01238 5.98435 8.9255 5.86415Z"/>
</svg>
