<svg width="16" height="19" viewBox="0 0 16 19" fill="none" xmlns="http://www.w3.org/2000/svg">
<path d="M13.5469 2.27393H4.83823C4.58183 2.27481 4.33615 2.39488 4.15485 2.60791C3.97355 2.82094 3.87136 3.10962 3.87061 3.41089V11.3696C3.87136 11.6709 3.97355 11.9596 4.15485 12.1726C4.33615 12.3856 4.58183 12.5057 4.83823 12.5066H13.5469C13.8033 12.5057 14.049 12.3856 14.2303 12.1726C14.4116 11.9596 14.5137 11.6709 14.5145 11.3696V3.41089C14.5137 3.10962 14.4116 2.82094 14.2303 2.60791C14.049 2.39488 13.8033 2.27481 13.5469 2.27393ZM13.5469 11.3696H4.83823V3.41089H13.5469V11.3696Z" fill="white" fill-opacity="0.7"/>
<path d="M8.70854 14.7805H1.93516V9.0957H2.90278V7.95874H1.93516C1.67876 7.95963 1.43307 8.0797 1.25177 8.29273C1.07047 8.50576 0.968282 8.79443 0.967529 9.0957V14.7805C0.968282 15.0818 1.07047 15.3705 1.25177 15.5835C1.43307 15.7965 1.67876 15.9166 1.93516 15.9175H8.70854C8.96494 15.9166 9.21062 15.7965 9.39193 15.5835C9.57323 15.3705 9.67542 15.0818 9.67617 14.7805V13.6435H8.70854V14.7805Z" fill="white" fill-opacity="0.7"/>
</svg>
