<svg width="32" height="32" viewBox="0 0 32 32" fill="none" xmlns="http://www.w3.org/2000/svg">
<g clip-path="url(#clip0_905_4142)">
<path d="M14.4 23.7C14.9 23.7 15.35 24.1 15.35 24.65C15.35 25.15 14.95 25.6 14.4 25.6C13.9 25.6 13.45 25.2 13.45 24.65C13.45 24.1 13.9 23.7 14.4 23.7ZM29.1 17.9C28.6 17.9 28.15 17.5 28.15 16.95C28.15 16.45 28.55 16 29.1 16C29.6 16 30.05 16.4 30.05 16.95C30.05 17.45 29.6 17.9 29.1 17.9ZM29.1 14.05C27.5 14.05 26.2 15.35 26.2 16.95C26.2 17.25 26.25 17.55 26.35 17.85L16.8 22.95C16.25 22.15 15.35 21.7 14.4 21.7C13.3 21.7 12.3 22.35 11.8 23.3L3.19999 18.8C2.29999 18.3 1.59999 16.85 1.69999 15.45C1.74999 14.75 1.99999 14.2 2.34999 14C2.59999 13.85 2.84999 13.9 3.19999 14.05L3.24999 14.1C5.54999 15.3 13 19.2 13.3 19.35C13.8 19.55 14.05 19.65 14.9 19.25L30.3 11.25C30.55 11.15 30.8 10.95 30.8 10.6C30.8 10.15 30.35 9.95 30.35 9.95C29.45 9.55 28.1 8.9 26.8 8.3C24 7 20.8 5.5 19.4 4.75C18.2 4.1 17.2 4.65 17.05 4.75L16.7 4.9C10.35 8.1 1.94999 12.25 1.44999 12.55C0.599989 13.05 0.0499886 14.1 -1.13519e-05 15.4C-0.100011 17.45 0.949989 19.6 2.44999 20.35L11.55 25.05C11.75 26.45 13 27.55 14.4 27.55C16 27.55 17.25 26.3 17.3 24.7L27.3 19.3C27.8 19.7 28.45 19.9 29.1 19.9C30.7 19.9 32 18.6 32 17C32 15.35 30.7 14.05 29.1 14.05Z" fill="white" fill-opacity="0.6"/>
</g>
<defs>
<clipPath id="clip0_905_4142">
<rect width="32" height="32" fill="white"/>
</clipPath>
</defs>
</svg>
