<svg width="39" height="26" viewBox="0 0 39 26" fill="none" xmlns="http://www.w3.org/2000/svg">
<mask id="path-1-inside-1_490_3955" fill="white">
<path d="M17.5533 21.675C17.8557 21.6753 18.1457 21.7865 18.3596 21.9843C18.5735 22.1821 18.6938 22.4504 18.6943 22.7302C18.6938 23.01 18.5735 23.2783 18.3596 23.4761C18.1457 23.6739 17.8557 23.7852 17.5533 23.7854C17.2509 23.785 16.9611 23.6737 16.7473 23.4759C16.5336 23.2781 16.4133 23.0099 16.4128 22.7302C16.4131 22.4504 16.5334 22.1822 16.7472 21.9844C16.961 21.7865 17.2509 21.6753 17.5533 21.675ZM35.4672 15.138C35.1648 15.1377 34.8749 15.0265 34.6609 14.8287C34.4471 14.6308 34.3267 14.3626 34.3262 14.0828C34.3265 13.8029 34.4468 13.5345 34.6608 13.3366C34.8747 13.1386 35.1647 13.0273 35.4672 13.027C35.7697 13.0274 36.0596 13.1388 36.2734 13.3367C36.4872 13.5347 36.6074 13.8029 36.6077 14.0828C36.6074 14.3626 36.4871 14.6308 36.2733 14.8286C36.0595 15.0265 35.7696 15.1377 35.4672 15.138ZM35.4672 10.814C34.5306 10.815 33.6326 11.1597 32.9703 11.7725C32.308 12.3853 31.9355 13.2161 31.9345 14.0828C31.9345 14.4338 31.9974 14.7833 32.1217 15.123L20.452 20.8708C20.1282 20.4362 19.6951 20.081 19.1899 19.8357C18.6847 19.5904 18.1227 19.4625 17.5522 19.463C16.8926 19.464 16.2464 19.6356 15.6866 19.9584C15.1269 20.2812 14.6758 20.7424 14.3843 21.2899L3.90024 16.1757C2.79266 15.637 1.96365 13.9487 2.05168 12.4126C2.09736 11.611 2.39654 10.9893 2.85227 10.7491C3.14142 10.597 3.48963 10.6104 3.85901 10.7893L3.92921 10.8233C6.7065 12.1775 15.7983 16.6082 16.1811 16.7726C16.7716 17.0252 17.1003 17.1278 18.1065 16.6865L36.8996 7.6432C37.1748 7.54681 37.4963 7.30298 37.4963 6.93182C37.4963 6.41736 36.9213 6.21477 36.9197 6.21477C35.8511 5.74051 34.2081 5.02861 32.6053 4.33475C29.18 2.85064 25.2979 1.1691 23.5931 0.342756C22.1212 -0.370174 20.9367 0.230894 20.725 0.352551L20.3144 0.540706C12.6416 4.05175 2.37314 8.75719 1.78816 9.08608C0.741308 9.67529 0.092808 10.8496 0.00923841 12.3074C-0.121687 14.6184 1.15247 17.0273 2.97373 17.9114L14.0595 23.2014C14.1818 23.9781 14.6019 24.6883 15.2433 25.2021C15.8846 25.716 16.7044 25.9992 17.5527 26C18.48 25.999 19.3697 25.6612 20.0304 25.0591C20.691 24.4571 21.0697 23.6391 21.0849 22.7812L33.2944 16.6587C33.9151 17.1071 34.6798 17.3511 35.4672 17.352C37.415 17.352 39 15.8855 39 14.0833C39 12.2811 37.415 10.814 35.4672 10.814Z"/>
</mask>
<path d="M18.6943 22.7302L19.6943 22.7318L19.6943 22.7286L18.6943 22.7302ZM17.5533 23.7854L17.5519 24.7854L17.5542 24.7854L17.5533 23.7854ZM16.4128 22.7302L15.4128 22.7292L15.4128 22.7318L16.4128 22.7302ZM34.3262 14.0828L33.3262 14.0817L33.3262 14.0844L34.3262 14.0828ZM35.4672 13.027L35.4686 12.027L35.4663 12.027L35.4672 13.027ZM36.6077 14.0828L37.6077 14.0838L37.6077 14.0817L36.6077 14.0828ZM31.9345 14.0828L30.9345 14.0816V14.0828H31.9345ZM32.1217 15.123L32.5635 16.0201L33.3694 15.6232L33.0608 14.7796L32.1217 15.123ZM20.452 20.8708L19.6501 21.4682L20.1473 22.1356L20.8939 21.7679L20.452 20.8708ZM17.5522 19.463L17.5513 18.463H17.5506L17.5522 19.463ZM14.3843 21.2899L13.9459 22.1887L14.8134 22.6119L15.267 21.7598L14.3843 21.2899ZM3.90024 16.1757L4.33866 15.2769L4.33762 15.2764L3.90024 16.1757ZM2.05168 12.4126L3.05004 12.4698L3.05006 12.4695L2.05168 12.4126ZM2.85227 10.7491L2.3868 9.864L2.38598 9.86444L2.85227 10.7491ZM3.85901 10.7893L4.29515 9.88939L4.29486 9.88925L3.85901 10.7893ZM3.92921 10.8233L4.36748 9.92445L4.36535 9.92342L3.92921 10.8233ZM16.1811 16.7726L15.7863 17.6914L15.7878 17.6921L16.1811 16.7726ZM18.1065 16.6865L18.5081 17.6023L18.5243 17.5953L18.5401 17.5876L18.1065 16.6865ZM36.8996 7.6432L36.5691 6.69942L36.5163 6.71789L36.466 6.74211L36.8996 7.6432ZM36.9197 6.21477L36.514 7.12879L36.7077 7.21477H36.9197V6.21477ZM32.6053 4.33475L32.2077 5.25232L32.208 5.25246L32.6053 4.33475ZM23.5931 0.342756L24.0293 -0.557108L24.029 -0.557235L23.5931 0.342756ZM20.725 0.352551L21.1416 1.26165L21.1834 1.2425L21.2233 1.21959L20.725 0.352551ZM20.3144 0.540706L20.7305 1.45003L20.731 1.4498L20.3144 0.540706ZM1.78816 9.08608L1.29809 8.21439L1.29767 8.21463L1.78816 9.08608ZM0.00923841 12.3074L-0.989123 12.2502L-0.989161 12.2508L0.00923841 12.3074ZM2.97373 17.9114L2.53703 18.811L2.54306 18.8139L2.97373 17.9114ZM14.0595 23.2014L15.0473 23.0459L14.9655 22.5257L14.4902 22.2989L14.0595 23.2014ZM17.5527 26L17.5517 27L17.5538 27L17.5527 26ZM21.0849 22.7812L20.6367 21.8873L20.0958 22.1586L20.0851 22.7635L21.0849 22.7812ZM33.2944 16.6587L33.8801 15.8481L33.3884 15.4929L32.8462 15.7648L33.2944 16.6587ZM35.4672 17.352L35.4661 18.352H35.4672V17.352ZM17.5524 22.675C17.6139 22.675 17.6589 22.6984 17.6806 22.7185L19.0385 21.2502C18.6325 20.8746 18.0975 20.6755 17.5542 20.675L17.5524 22.675ZM17.6806 22.7185C17.6906 22.7277 17.6939 22.7344 17.6946 22.7359C17.6952 22.7373 17.6943 22.7356 17.6943 22.7318L19.6943 22.7286C19.6934 22.1579 19.4472 21.6281 19.0385 21.2502L17.6806 22.7185ZM17.6943 22.7286C17.6943 22.7248 17.6952 22.7231 17.6946 22.7245C17.6939 22.726 17.6906 22.7327 17.6806 22.7419L19.0385 24.2103C19.4472 23.8323 19.6934 23.3025 19.6943 22.7318L17.6943 22.7286ZM17.6806 22.7419C17.6589 22.762 17.6139 22.7854 17.5524 22.7854L17.5542 24.7854C18.0975 24.7849 18.6325 24.5858 19.0385 24.2103L17.6806 22.7419ZM17.5546 22.7854C17.4931 22.7853 17.4482 22.762 17.4265 22.7419L16.0682 24.2099C16.474 24.5854 17.0088 24.7847 17.5519 24.7854L17.5546 22.7854ZM17.4265 22.7419C17.4165 22.7327 17.4132 22.726 17.4125 22.7245C17.4119 22.7231 17.4128 22.7248 17.4128 22.7286L15.4128 22.7318C15.4137 23.3023 15.6597 23.832 16.0682 24.2099L17.4265 22.7419ZM17.4128 22.7313C17.4128 22.7351 17.4119 22.7369 17.4124 22.7356C17.4131 22.7341 17.4164 22.7276 17.4263 22.7184L16.068 21.2504C15.6594 21.6284 15.4134 22.1584 15.4128 22.7292L17.4128 22.7313ZM17.4263 22.7184C17.4479 22.6984 17.4927 22.675 17.5542 22.675L17.5524 20.675C17.0091 20.6755 16.474 20.8747 16.068 21.2504L17.4263 22.7184ZM35.4681 14.138C35.4066 14.1379 35.3617 14.1146 35.3399 14.0945L33.982 15.5628C34.388 15.9384 34.923 16.1375 35.4663 16.138L35.4681 14.138ZM35.3399 14.0945C35.3299 14.0852 35.3266 14.0786 35.3259 14.0771C35.3253 14.0757 35.3262 14.0774 35.3262 14.0812L33.3262 14.0844C33.3271 14.6551 33.5733 15.1849 33.982 15.5628L35.3399 14.0945ZM35.3262 14.0838C35.3262 14.0876 35.3253 14.0894 35.3259 14.088C35.3266 14.0864 35.3299 14.0798 35.3399 14.0706L33.9816 12.6026C33.5729 12.9807 33.3268 13.5108 33.3262 14.0817L35.3262 14.0838ZM35.3399 14.0706C35.3616 14.0505 35.4066 14.0271 35.4681 14.027L35.4663 12.027C34.9229 12.0275 34.3877 12.2268 33.9816 12.6026L35.3399 14.0706ZM35.4659 14.027C35.5274 14.0271 35.5723 14.0505 35.594 14.0706L36.9527 12.6029C36.5468 12.2272 36.0119 12.0278 35.4686 12.027L35.4659 14.027ZM35.594 14.0706C35.604 14.0798 35.6073 14.0864 35.608 14.088C35.6086 14.0894 35.6077 14.0876 35.6077 14.0838L37.6077 14.0817C37.6071 13.511 37.3612 12.9811 36.9527 12.6029L35.594 14.0706ZM35.6077 14.0817C35.6077 14.0778 35.6087 14.0761 35.6081 14.0774C35.6074 14.0788 35.6041 14.0854 35.5942 14.0946L36.9525 15.5626C37.3611 15.1846 37.6071 14.6546 37.6077 14.0838L35.6077 14.0817ZM35.5942 14.0946C35.5726 14.1146 35.5278 14.1379 35.4663 14.138L35.4681 16.138C36.0115 16.1375 36.5465 15.9383 36.9525 15.5626L35.5942 14.0946ZM35.4662 9.81402C34.2887 9.81522 33.1456 10.2479 32.2912 11.0385L33.6495 12.5065C34.1196 12.0715 34.7725 11.8147 35.4683 11.814L35.4662 9.81402ZM32.2912 11.0385C31.4341 11.8315 30.9359 12.924 30.9345 14.0816L32.9345 14.084C32.9352 13.5083 33.1819 12.9391 33.6495 12.5065L32.2912 11.0385ZM30.9345 14.0828C30.9345 14.5547 31.0193 15.0203 31.1825 15.4665L33.0608 14.7796C32.9755 14.5463 32.9345 14.3129 32.9345 14.0828H30.9345ZM31.6798 14.226L20.0102 19.9737L20.8939 21.7679L32.5635 16.0201L31.6798 14.226ZM21.254 20.2734C20.8309 19.7055 20.2706 19.2487 19.6266 18.9361L18.7532 20.7353C19.1196 20.9132 19.4256 21.1669 19.6501 21.4682L21.254 20.2734ZM19.6266 18.9361C18.9829 18.6236 18.2709 18.4624 17.5513 18.463L17.553 20.463C17.9744 20.4627 18.3866 20.5573 18.7532 20.7353L19.6266 18.9361ZM17.5506 18.463C16.72 18.4643 15.9016 18.6801 15.1871 19.0922L16.1862 20.8247C16.5912 20.5911 17.0651 20.4637 17.5537 20.463L17.5506 18.463ZM15.1871 19.0922C14.4721 19.5045 13.8849 20.1 13.5016 20.82L15.267 21.7598C15.4666 21.3849 15.7816 21.058 16.1862 20.8247L15.1871 19.0922ZM14.8227 20.3912L4.33866 15.2769L3.46181 17.0745L13.9459 22.1887L14.8227 20.3912ZM4.33762 15.2764C4.04786 15.1355 3.69852 14.7838 3.42518 14.2273C3.1583 13.684 3.01688 13.0485 3.05004 12.4698L1.05332 12.3554C0.998449 13.3129 1.22752 14.2896 1.63003 15.109C2.02609 15.9154 2.64504 16.6772 3.46285 17.075L4.33762 15.2764ZM3.05006 12.4695C3.067 12.1723 3.12931 11.9494 3.19929 11.804C3.27046 11.6561 3.32806 11.6287 3.31857 11.6337L2.38598 9.86444C1.47215 10.3461 1.1071 11.4116 1.0533 12.3557L3.05006 12.4695ZM3.31775 11.6341C3.3107 11.6378 3.30213 11.641 3.29373 11.6428C3.28555 11.6446 3.28229 11.6441 3.28602 11.6443C3.29418 11.6446 3.33906 11.6486 3.42316 11.6893L4.29486 9.88925C3.71933 9.61054 3.02703 9.52729 2.3868 9.864L3.31775 11.6341ZM3.42287 11.6892L3.49307 11.7232L4.36535 9.92342L4.29515 9.88939L3.42287 11.6892ZM3.49093 11.7221C6.24196 13.0635 15.3743 17.5144 15.7863 17.6914L16.5758 15.8538C16.5788 15.8551 16.5703 15.8514 16.5415 15.838C16.5161 15.8263 16.482 15.8102 16.4389 15.7898C16.353 15.7491 16.2361 15.6933 16.0914 15.6238C15.8022 15.485 15.406 15.2937 14.9315 15.064C13.9828 14.6048 12.7243 13.9935 11.3904 13.3448C8.72293 12.0476 5.75601 10.6015 4.36748 9.92445L3.49093 11.7221ZM15.7878 17.6921C16.0831 17.8184 16.4781 17.9861 16.9806 17.9898C17.4714 17.9933 17.9584 17.8434 18.5081 17.6023L17.7049 15.7707C17.2484 15.9709 17.068 15.9903 16.9952 15.9898C16.9342 15.9894 16.8695 15.9795 16.5743 15.8532L15.7878 17.6921ZM18.5401 17.5876L37.3332 8.5443L36.466 6.74211L17.6729 15.7854L18.5401 17.5876ZM37.2302 8.58699C37.6539 8.43859 38.4963 7.94455 38.4963 6.93182H36.4963C36.4963 6.87603 36.5092 6.82151 36.5298 6.77577C36.5491 6.73281 36.5705 6.7077 36.5802 6.69757C36.5896 6.68781 36.5927 6.68714 36.5862 6.6911C36.5799 6.69498 36.5728 6.6981 36.5691 6.69942L37.2302 8.58699ZM38.4963 6.93182C38.4963 6.25612 38.1075 5.81848 37.8326 5.59896C37.692 5.48666 37.5563 5.40929 37.4572 5.35978C37.4064 5.33444 37.3617 5.31465 37.3259 5.2999C37.308 5.29252 37.2915 5.28607 37.2767 5.28054C37.2696 5.27785 37.2614 5.27487 37.2526 5.27179C37.2488 5.27043 37.2417 5.26797 37.2329 5.26509C37.2294 5.26393 37.2198 5.26078 37.2075 5.25709C37.2024 5.25554 37.1882 5.2513 37.1699 5.24657C37.1599 5.24404 37.1341 5.23804 37.1183 5.2347C37.0893 5.22925 36.99 5.21724 36.9197 5.21477V7.21477C36.8493 7.21229 36.7501 7.20028 36.721 7.19484C36.7052 7.19151 36.6795 7.1855 36.6696 7.18299C36.6513 7.17826 36.6372 7.17404 36.6321 7.17252C36.62 7.16887 36.6106 7.1658 36.6074 7.16474C36.5992 7.16206 36.593 7.15989 36.5903 7.15894C36.5838 7.15666 36.579 7.15487 36.5761 7.1538C36.5699 7.15148 36.566 7.14988 36.5639 7.14905C36.5599 7.14739 36.5604 7.14745 36.5638 7.14913C36.5729 7.15369 36.5813 7.15913 36.5846 7.16178C36.5887 7.16507 36.5687 7.15067 36.5453 7.11116C36.5176 7.06419 36.4963 6.99944 36.4963 6.93182H38.4963ZM37.3253 5.30074C36.2516 4.82421 34.6038 4.11023 33.0025 3.41705L32.208 5.25246C33.8124 5.94699 35.4506 6.65681 36.514 7.12879L37.3253 5.30074ZM33.0028 3.41718C29.5645 1.9274 25.7095 0.257317 24.0293 -0.557108L23.1569 1.24262C24.8864 2.08087 28.7955 3.77389 32.2077 5.25232L33.0028 3.41718ZM24.029 -0.557235C22.1213 -1.48123 20.5599 -0.705916 20.2268 -0.51449L21.2233 1.21959C21.3135 1.1677 22.1211 0.740885 23.1572 1.24275L24.029 -0.557235ZM20.3084 -0.556547L19.8978 -0.368391L20.731 1.4498L21.1416 1.26165L20.3084 -0.556547ZM19.8983 -0.368612C16.0619 1.38692 11.5757 3.44143 7.97531 5.09827C4.41462 6.73684 1.63733 8.02367 1.29809 8.21439L2.27823 9.95776C2.27695 9.95847 2.28894 9.95186 2.32297 9.93462C2.35399 9.9189 2.39527 9.89841 2.44748 9.87289C2.55178 9.82191 2.69196 9.75462 2.86634 9.67183C3.21469 9.50645 3.69109 9.28319 4.27272 9.01243C5.43551 8.47114 7.01209 7.74313 8.81139 6.91513C12.4097 5.25926 16.8941 3.20554 20.7305 1.45003L19.8983 -0.368612ZM1.29767 8.21463C-0.113076 9.00866 -0.890895 10.5367 -0.989123 12.2502L1.0076 12.3646C1.07651 11.1625 1.59569 10.3419 2.27864 9.95752L1.29767 8.21463ZM-0.989161 12.2508C-1.13874 14.891 0.290693 17.7206 2.53704 18.811L3.41042 17.0117C2.01425 16.334 0.895362 14.3458 1.00764 12.364L-0.989161 12.2508ZM2.54306 18.8139L13.6288 24.1039L14.4902 22.2989L3.4044 17.0089L2.54306 18.8139ZM13.0717 23.3568C13.2345 24.3918 13.7918 25.3206 14.618 25.9826L15.8685 24.4217C15.4121 24.056 15.129 23.5645 15.0473 23.0459L13.0717 23.3568ZM14.618 25.9826C15.4426 26.6432 16.4843 26.9989 17.5517 27L17.5537 25C16.9244 24.9994 16.3266 24.7887 15.8685 24.4217L14.618 25.9826ZM17.5538 27C18.7196 26.9988 19.8519 26.5747 20.7039 25.7983L19.3568 24.32C18.8875 24.7477 18.2404 24.9993 17.5517 25L17.5538 27ZM20.7039 25.7983C21.5584 25.0196 22.0645 23.9446 22.0848 22.799L20.0851 22.7635C20.075 23.3336 19.8237 23.8946 19.3568 24.32L20.7039 25.7983ZM21.5332 23.6752L33.7427 17.5526L32.8462 15.7648L20.6367 21.8873L21.5332 23.6752ZM32.7088 17.4693C33.5047 18.0443 34.4751 18.3509 35.4661 18.352L35.4684 16.352C34.8844 16.3514 34.3255 16.17 33.8801 15.8481L32.7088 17.4693ZM35.4672 18.352C37.8927 18.352 40 16.5095 40 14.0833H38C38 15.2615 36.9372 16.352 35.4672 16.352V18.352ZM40 14.0833C40 11.6573 37.8929 9.81402 35.4672 9.81402V11.814C36.937 11.814 38 12.9049 38 14.0833H40Z" fill="#EE5390" mask="url(#path-1-inside-1_490_3955)"/>
</svg>
