<svg width="9" height="10" viewBox="0 0 9 10" fill="none" xmlns="http://www.w3.org/2000/svg">
<path fill-rule="evenodd" clip-rule="evenodd" d="M1.63641 0C1.23886 0 0.857596 0.191558 0.576486 0.532533C0.295377 0.873508 0.137451 1.33597 0.137451 1.81818V8.18182C0.137451 8.66403 0.295377 9.12649 0.576486 9.46747C0.857596 9.80844 1.23886 10 1.63641 10H6.88277C7.28032 10 7.66158 9.80844 7.94269 9.46747C8.2238 9.12649 8.38173 8.66403 8.38173 8.18182V1.81818C8.38173 1.33597 8.2238 0.873508 7.94269 0.532533C7.66158 0.191558 7.28032 0 6.88277 0H1.63641ZM4.37801 1.84136C4.42472 1.86021 4.4679 1.89004 4.50511 1.92915C4.54231 1.96825 4.57279 2.01586 4.59482 2.06925C4.61685 2.12265 4.62999 2.18079 4.63349 2.24035C4.63699 2.29991 4.63078 2.35972 4.61522 2.41636L4.27982 3.63636H4.98883L5.40292 2.12909C5.43433 2.01469 5.50191 1.9201 5.59081 1.86614C5.67972 1.81218 5.78265 1.80327 5.87697 1.84136C5.97128 1.87946 6.04926 1.96144 6.09375 2.06927C6.13823 2.17711 6.14558 2.30196 6.11418 2.41636L5.77878 3.63636H6.88277C6.98215 3.63636 7.07747 3.68425 7.14775 3.7695C7.21803 3.85474 7.25751 3.97036 7.25751 4.09091C7.25751 4.21146 7.21803 4.32708 7.14775 4.41232C7.07747 4.49756 6.98215 4.54545 6.88277 4.54545H5.52883L5.27926 5.45455H6.13329C6.23267 5.45455 6.32799 5.50244 6.39827 5.58768C6.46855 5.67292 6.50803 5.78854 6.50803 5.90909C6.50803 6.02964 6.46855 6.14526 6.39827 6.2305C6.32799 6.31575 6.23267 6.36364 6.13329 6.36364H5.0293L4.61522 7.87091C4.58381 7.98531 4.51622 8.0799 4.42732 8.13386C4.33842 8.18782 4.23549 8.19673 4.14117 8.15864C4.04685 8.12054 3.96887 8.03856 3.92439 7.93073C3.8799 7.82289 3.87255 7.69804 3.90396 7.58364L4.23935 6.36364H3.53035L3.11663 7.87091C3.08523 7.98531 3.01764 8.0799 2.92874 8.13386C2.83984 8.18782 2.73691 8.19673 2.64259 8.15864C2.54827 8.12054 2.47029 8.03856 2.4258 7.93073C2.38132 7.82289 2.37397 7.69804 2.40538 7.58364L2.74039 6.36364H1.63641C1.53702 6.36364 1.44171 6.31575 1.37143 6.2305C1.30115 6.14526 1.26167 6.02964 1.26167 5.90909C1.26167 5.78854 1.30115 5.67292 1.37143 5.58768C1.44171 5.50244 1.53702 5.45455 1.63641 5.45455H2.99035L3.23992 4.54545H2.38589C2.2865 4.54545 2.19119 4.49756 2.12091 4.41232C2.05063 4.32708 2.01115 4.21146 2.01115 4.09091C2.01115 3.97036 2.05063 3.85474 2.12091 3.7695C2.19119 3.68425 2.2865 3.63636 2.38589 3.63636H3.48987L3.90396 2.12909C3.9195 2.07244 3.94409 2.02005 3.97633 1.97492C4.00857 1.9298 4.04782 1.89282 4.09184 1.8661C4.13586 1.83938 4.18379 1.82345 4.23289 1.8192C4.282 1.81496 4.33131 1.82249 4.37801 1.84136ZM3.7803 5.45455L4.02987 4.54545H4.73888L4.4893 5.45455H3.7803Z" fill="#EE5390"/>
</svg>
