<svg width="643" height="180" viewBox="0 0 643 180" fill="none" xmlns="http://www.w3.org/2000/svg">
<path d="M0.0469055 177H75.3643C112.962 177 135.911 157.957 135.911 127.073V126.829C135.911 104.002 119.554 86.9121 95.8721 84.7148V82.5176C113.572 79.71 127.244 63.3525 127.244 44.9199V44.6758C127.244 17.6982 107.103 0.852539 73.6553 0.852539H0.0469055V177ZM65.9649 25.3887C85.0078 25.3887 96.1162 34.5439 96.1162 50.1689V50.4131C96.1162 66.4043 84.2754 75.0713 61.9366 75.0713H31.541V25.3887H65.9649ZM66.9414 97.4102C90.9893 97.4102 103.685 106.81 103.685 124.632V124.876C103.685 142.82 91.3555 152.464 68.1621 152.464H31.541V97.4102H66.9414ZM195.566 177H228.891L276.132 43.5771H244.15L213.51 147.337H211.435L180.551 43.5771H148.081L195.566 177ZM346.163 179.686C382.418 179.686 400.24 158.812 404.513 141.6L404.879 140.501H375.948L375.582 141.355C372.652 147.459 363.253 155.76 346.773 155.76C326.144 155.76 313.204 141.844 312.838 117.918H406.1V107.908C406.1 67.625 382.662 41.0137 344.698 41.0137C306.734 41.0137 282.442 68.4795 282.442 110.472V110.594C282.442 153.074 306.49 179.686 346.163 179.686ZM345.064 64.8174C362.032 64.8174 374.361 75.6816 376.437 97.5322H313.082C315.401 76.292 328.097 64.8174 345.064 64.8174ZM429.133 177H459.529V99.2412C459.529 79.2217 470.759 66.5264 488.826 66.5264C507.258 66.5264 515.681 77.0244 515.681 97.7764V177H546.077V90.6963C546.077 58.958 529.841 41.0137 500.056 41.0137C480.769 41.0137 467.952 49.6807 461.604 63.9629H459.529V43.5771H429.133V177ZM627.094 177.61C632.953 177.61 638.568 177.122 642.963 176.268V152.83C639.301 153.196 636.981 153.318 632.709 153.318C620.014 153.318 614.765 147.703 614.765 134.397V67.1367H642.963V43.5771H614.765V10.8623H583.881V43.5771H563.129V67.1367H583.881V141.6C583.881 167.356 596.454 177.61 627.094 177.61Z" fill="white"/>
</svg>
