<svg width="55" height="43" viewBox="0 0 55 43" fill="none" xmlns="http://www.w3.org/2000/svg">
<path fill-rule="evenodd" clip-rule="evenodd" d="M7.72811 12.1555C7.72854 10.0597 8.27073 7.99958 9.30205 6.17512C10.3334 4.35065 11.8188 2.82376 13.6142 1.74261C15.4096 0.661469 17.454 0.0627914 19.549 0.00467613C21.6439 -0.0534391 23.7184 0.430982 25.5709 1.41093C27.4235 2.39088 28.9913 3.83307 30.1222 5.59756C31.2531 7.36205 31.9086 9.38891 32.0252 11.4814C32.1419 13.574 31.7156 15.6611 30.7878 17.5404C29.86 19.4196 28.4621 21.0271 26.7299 22.2068C30.4602 23.575 33.6957 26.0282 36.02 29.2507C38.3444 32.4732 39.6511 36.3176 39.7721 40.289C39.7787 40.5067 39.7422 40.7236 39.665 40.9273C39.5877 41.1309 39.471 41.3173 39.3217 41.4759C39.0201 41.7962 38.6037 41.9835 38.164 41.9967C37.7243 42.0099 37.2973 41.8478 36.9771 41.5463C36.6568 41.2447 36.4695 40.8282 36.4563 40.3885C36.3247 36.0812 34.5211 31.9943 31.4277 28.9941C28.3344 25.9938 24.1943 24.3159 19.885 24.3159C15.5756 24.3159 11.4356 25.9938 8.34225 28.9941C5.24889 31.9943 3.44529 36.0812 3.31365 40.3885C3.29152 40.8214 3.10073 41.2284 2.78215 41.5223C2.46357 41.8163 2.04254 41.9738 1.60926 41.961C1.17599 41.9483 0.764922 41.7664 0.464132 41.4543C0.163342 41.1422 -0.00324929 40.7247 4.80302e-05 40.2912C0.120636 36.3194 1.42719 32.4746 3.75153 29.2516C6.07587 26.0287 9.31161 23.5751 13.0422 22.2068C11.4036 21.0921 10.0626 19.5934 9.13631 17.8414C8.21001 16.0894 7.72655 14.1373 7.72811 12.1555V12.1555ZM19.8861 3.31328C17.541 3.31328 15.292 4.24486 13.6337 5.90309C11.9755 7.56132 11.0439 9.81036 11.0439 12.1555C11.0439 14.5005 11.9755 16.7496 13.6337 18.4078C15.292 20.066 17.541 20.9976 19.8861 20.9976C22.2312 20.9976 24.4802 20.066 26.1384 18.4078C27.7967 16.7496 28.7283 14.5005 28.7283 12.1555C28.7283 9.81036 27.7967 7.56132 26.1384 5.90309C24.4802 4.24486 22.2312 3.31328 19.8861 3.31328Z" fill="#8632E6"/>
<path d="M35.4926 28.2109L39.3295 19.4605C39.8607 18.249 41.2868 17.623 42.4434 18.2423C44.2432 19.2063 43.8822 20.1098 43.8822 25.7812H50.6763C52.1454 25.7812 53.2689 27.1086 53.0455 28.5803L51.386 39.5137C51.2061 40.699 50.2 41.5739 49.0168 41.5739H35.4926M35.4926 28.2109V41.5739M35.4926 28.2109H31.897C30.5732 28.2109 29.5 29.2986 29.5 30.6406V39.1443C29.5 40.4861 30.5732 41.5739 31.897 41.5739H35.4926" stroke="#8632E6" stroke-width="2.35739" stroke-linecap="round" stroke-linejoin="round"/>
</svg>
