<svg width="50" height="42" viewBox="0 0 50 42" fill="none" xmlns="http://www.w3.org/2000/svg">
<path fill-rule="evenodd" clip-rule="evenodd" d="M7.71166 12.1296C7.71209 10.0383 8.25313 7.98256 9.28225 6.16197C10.3114 4.34139 11.7937 2.81775 13.5852 1.7389C15.3768 0.660061 17.4168 0.0626577 19.5073 0.00466618C21.5979 -0.0533254 23.6679 0.430064 25.5165 1.40793C27.3651 2.38579 28.9296 3.82491 30.0581 5.58565C31.1865 7.34638 31.8407 9.36892 31.9571 11.457C32.0734 13.5451 31.6481 15.6278 30.7222 17.503C29.7964 19.3782 28.4016 20.9823 26.673 22.1595C30.3954 23.5248 33.624 25.9728 35.9434 29.1884C38.2627 32.4041 39.5667 36.2403 39.6875 40.2033C39.694 40.4205 39.6577 40.637 39.5805 40.8402C39.5034 41.0434 39.387 41.2294 39.238 41.3876C38.9371 41.7072 38.5215 41.8941 38.0827 41.9073C37.644 41.9205 37.2179 41.7588 36.8984 41.4578C36.5788 41.1569 36.3919 40.7413 36.3787 40.3025C36.2474 36.0044 34.4476 31.9262 31.3608 28.9324C28.274 25.9385 24.1428 24.2641 19.8427 24.2641C15.5425 24.2641 11.4113 25.9385 8.3245 28.9324C5.23772 31.9262 3.43796 36.0044 3.3066 40.3025C3.28451 40.7345 3.09413 41.1407 2.77623 41.434C2.45832 41.7273 2.03819 41.8844 1.60584 41.8717C1.17348 41.859 0.763294 41.6775 0.463144 41.3661C0.162994 41.0546 -0.00324237 40.638 4.7928e-05 40.2055C0.120379 36.2421 1.42415 32.4054 3.74354 29.1894C6.06294 25.9733 9.29179 23.5249 13.0145 22.1595C11.3793 21.0473 10.0412 19.5517 9.11686 17.8034C8.19254 16.0551 7.7101 14.1072 7.71166 12.1296V12.1296ZM19.8438 3.30623C17.5037 3.30623 15.2594 4.23583 13.6047 5.89053C11.95 7.54523 11.0204 9.78948 11.0204 12.1296C11.0204 14.4697 11.95 16.7139 13.6047 18.3686C15.2594 20.0233 17.5037 20.9529 19.8438 20.9529C22.1839 20.9529 24.4281 20.0233 26.0828 18.3686C27.7375 16.7139 28.6671 14.4697 28.6671 12.1296C28.6671 9.78948 27.7375 7.54523 26.0828 5.89053C24.4281 4.23583 22.1839 3.30623 19.8438 3.30623Z" fill="#EE5390"/>
<path d="M44.8846 13C43.646 13 42.4074 13.4806 41.4461 14.4419L22.7377 33.1503L22.6638 33.52L21.3697 40.0273L21 41.765L22.7377 41.3953L29.245 40.1012L29.6147 40.0273L48.3231 21.3189C50.2457 19.3963 50.2457 16.3645 48.3231 14.4419C47.3618 13.4806 46.1232 13 44.8846 13ZM44.8846 15.2554C45.4808 15.2554 46.0816 15.528 46.6593 16.1057C47.8101 17.2565 47.8101 18.5044 46.6593 19.6551L45.8089 20.4686L42.2965 16.9561L43.1099 16.1057C43.6876 15.528 44.2884 15.2554 44.8846 15.2554ZM40.6327 18.6199L44.1451 22.1323L29.8366 36.4409C29.0601 34.925 27.84 33.7049 26.3241 32.9285L40.6327 18.6199ZM24.8082 34.8511C26.2271 35.4241 27.3409 36.538 27.914 37.9568L24.0318 38.7332L24.8082 34.8511Z" fill="#EE5390"/>
</svg>
