<svg width="30" height="29" viewBox="0 0 30 29" fill="none" xmlns="http://www.w3.org/2000/svg">
<path d="M24.8954 6.21257L24.8974 6.21043C25.0729 6.02618 25.2331 5.78529 25.2438 5.50418C25.2495 5.35312 25.2104 5.20016 25.1184 5.06761C25.0288 4.93846 24.9078 4.8554 24.7897 4.80565C24.5631 4.71019 24.3097 4.7186 24.0896 4.76875C23.8594 4.82117 23.6183 4.92912 23.3855 5.09003L23.3854 5.08991L23.3755 5.09709L7.81167 16.4259L1.2376 14.0247L1.22964 14.0217L1.22157 14.0191C0.557139 13.8017 0.492581 13.5252 0.501011 13.4276C0.50787 13.3482 0.555662 13.2105 0.732953 13.0293C0.908931 12.8494 1.19117 12.65 1.60601 12.4567L28.1838 0.646847L28.198 0.640554L28.2117 0.633395C28.6549 0.40263 28.9889 0.494019 29.1943 0.725496C29.431 0.992319 29.6218 1.58366 29.4063 2.57661L29.4047 2.58429L29.4032 2.59201L24.8758 27.1549L24.8756 27.1564C24.7254 27.9848 24.4589 28.3268 24.2434 28.4394C24.0563 28.5372 23.7247 28.5503 23.1677 28.203L16.304 22.3588L15.9326 22.0425L15.6073 22.406L12.295 26.1067L12.2949 26.1067L12.2899 26.1124C12.098 26.3336 11.9675 26.4798 11.8249 26.5828L12.2406 19.3482L24.8954 6.21257Z" stroke="#EE5390"/>
</svg>
