<svg width="27" height="27" viewBox="0 0 27 27" fill="none" xmlns="http://www.w3.org/2000/svg">
<path d="M13.5 25.3124C11.1637 25.3124 8.87989 24.6196 6.93733 23.3216C4.99478 22.0237 3.48074 20.1788 2.58668 18.0204C1.69262 15.8619 1.45869 13.4868 1.91448 11.1954C2.37027 8.90401 3.4953 6.79922 5.14731 5.14721C6.79931 3.49521 8.9041 2.37018 11.1955 1.91439C13.4869 1.4586 15.862 1.69253 18.0205 2.58659C20.1789 3.48065 22.0238 4.99468 23.3217 6.93724C24.6197 8.8798 25.3125 11.1636 25.3125 13.4999C25.3125 16.6328 24.068 19.6373 21.8527 21.8526C19.6374 24.0679 16.6329 25.3124 13.5 25.3124ZM13.5 3.37491C11.4975 3.37491 9.5399 3.96873 7.87486 5.08128C6.20981 6.19383 4.91206 7.77514 4.14572 9.62524C3.37939 11.4753 3.17888 13.5111 3.56955 15.4752C3.96023 17.4393 4.92454 19.2434 6.34055 20.6594C7.75656 22.0754 9.56066 23.0397 11.5247 23.4304C13.4888 23.821 15.5246 23.6205 17.3747 22.8542C19.2248 22.0879 20.8061 20.7901 21.9186 19.1251C23.0312 17.46 23.625 15.5024 23.625 13.4999C23.625 10.8146 22.5583 8.23926 20.6595 6.34046C18.7607 4.44165 16.1853 3.37491 13.5 3.37491Z" fill="white"/>
<path d="M17.3728 18.5626L12.6562 13.846V5.90634H14.3438V13.1457L18.5625 17.3729L17.3728 18.5626Z" fill="white"/>
</svg>
