<svg width="35" height="29" viewBox="0 0 35 29" fill="none" xmlns="http://www.w3.org/2000/svg">
<path d="M10.6419 22.178C8.00383 22.1306 5.73087 20.5172 4.68942 18.2023C4.8832 18.2172 5.07892 18.2247 5.27636 18.2247C5.97507 18.2247 6.65329 18.1305 7.30059 17.9521L7.26796 16.9802C4.44268 16.402 2.25411 13.9997 1.94484 11.0189C2.77984 11.3726 3.68988 11.5814 4.64311 11.6132L6.36507 11.6706L4.94138 10.7003C3.1495 9.47905 1.96591 7.38954 1.96591 5.01929C1.96591 4.03335 2.17177 3.09554 2.54107 2.24699C6.15672 6.44583 11.3643 9.18801 17.2123 9.48818L17.8696 9.52192L17.7259 8.87968C17.6134 8.37684 17.553 7.85714 17.553 7.32308C17.553 3.54496 20.5538 0.5 24.233 0.5C26.1516 0.5 27.8857 1.32557 29.1064 2.64906L29.2967 2.85538L29.5719 2.80037C30.7772 2.55948 31.9305 2.17029 33.0127 1.65296C32.4402 2.68606 31.6113 3.55134 30.6161 4.15879L30.9373 5.08188C31.8463 4.97083 32.7288 4.77836 33.579 4.51056C32.853 5.37676 32.0262 6.1548 31.1195 6.82318L30.9049 6.98136L30.9166 7.24769C30.9302 7.55541 30.9377 7.86546 30.9377 8.17167C30.9377 17.6403 23.8741 28.5 11.0059 28.5C7.7699 28.5 4.7174 27.7095 2.01554 26.31C5.38078 26.2422 8.47525 25.0418 10.945 23.0686L12.0284 22.203L10.6419 22.178Z" stroke="#EE5390"/>
</svg>
