<svg width="32" height="32" viewBox="0 0 32 32" fill="none" xmlns="http://www.w3.org/2000/svg">
<path d="M0.250049 27.5313C3.72505 27.8438 6.8563 26.9688 9.7063 24.8313C6.72505 24.5688 4.7313 23.0813 3.6188 20.2938C4.5938 20.4125 5.5063 20.4438 6.47505 20.1813C3.26255 19.1813 1.55005 17.0813 1.3188 13.6938C2.2813 14.1438 3.18755 14.4688 4.2563 14.4813C2.35005 13.05 1.37505 11.1938 1.41255 8.85625C1.4313 7.78125 1.7188 6.76875 2.28755 5.8125C5.8188 9.94375 10.25 12.2313 15.7063 12.6125C15.675 12.375 15.6563 12.1875 15.6313 11.9938C15.1813 8.53125 17.4313 5.38125 20.8688 4.725C23.025 4.3125 24.9313 4.88125 26.5438 6.36875C26.7938 6.59375 27.0063 6.64375 27.3188 6.5625C28.575 6.24375 29.7688 5.78125 30.925 5.15625C30.4813 6.61875 29.5688 7.71875 28.3313 8.64375C28.6125 8.59375 28.9 8.55625 29.1813 8.5C29.475 8.4375 29.7688 8.36875 30.0625 8.2875C30.3438 8.2125 30.6188 8.125 30.8938 8.03125C31.175 7.9375 31.4563 7.83125 31.7875 7.775C31.625 8 31.4688 8.2375 31.2938 8.45625C30.5688 9.375 29.7313 10.1813 28.8125 10.9C28.7188 10.975 28.6375 11.1375 28.6438 11.25C28.6938 13.4688 28.3813 15.6313 27.6625 17.7313C26.25 21.8688 23.7875 25.2188 20.0938 27.6125C18.2688 28.7938 16.275 29.5688 14.1438 30.0188C12.0313 30.4625 9.9063 30.5438 7.77505 30.2938C5.63755 30.0438 3.6063 29.4125 1.6938 28.425C1.18755 28.1688 0.700049 27.8813 0.206299 27.6063C0.225049 27.5813 0.237549 27.5563 0.250049 27.5313Z" fill="white" fill-opacity="0.6"/>
</svg>
