<svg width="32" height="32" viewBox="0 0 32 32" fill="none" xmlns="http://www.w3.org/2000/svg">
<path d="M16.275 28.0625C12.7062 27.95 9.31247 27.8625 5.91872 27.7313C5.18747 27.7 4.44372 27.5875 3.73122 27.4188C2.39372 27.1063 1.46872 26.3 0.993717 24.9813C0.612467 23.9188 0.474967 22.825 0.374967 21.7125C0.156217 19.1 0.156217 16.4875 0.262467 13.875C0.324967 12.4 0.362467 10.9125 0.756217 9.48126C0.993717 8.62501 1.28122 7.78751 1.97497 7.16876C2.70622 6.51251 3.56247 6.11876 4.53747 6.07501C7.21247 5.94376 9.88122 5.78126 12.5562 5.75626C16.1562 5.71876 19.7625 5.76876 23.3625 5.83751C24.9187 5.86876 26.4875 5.95001 28.0312 6.15001C29.4437 6.33751 30.5 7.12501 31.0625 8.50001C31.4937 9.55626 31.6562 10.6625 31.75 11.7875C31.9937 14.6063 32 17.425 31.8625 20.2438C31.7937 21.675 31.725 23.1125 31.3187 24.5063C30.8562 26.1063 29.875 27.1625 28.2375 27.525C27.6 27.6625 26.9375 27.7125 26.2875 27.7375C22.8875 27.8563 19.4937 27.9625 16.275 28.0625ZM12.8187 20.9563C15.6687 19.4813 18.4875 18.0188 21.3625 16.525C18.4937 15.025 15.675 13.5563 12.8187 12.0625C12.8187 15.0438 12.8187 17.975 12.8187 20.9563Z" fill="white" fill-opacity="0.6"/>
</svg>
