<svg width="251" height="330" viewBox="0 0 251 330" fill="none" xmlns="http://www.w3.org/2000/svg">
<g filter="url(#filter0_i_23_2035)">
<path d="M125.15 39.98C136.289 39.98 146.972 44.405 154.848 52.2815C162.725 60.158 167.15 70.8409 167.15 81.98C167.178 91.1905 164.146 100.149 158.53 107.45L136.27 136.53C135.29 137.807 134.61 139.288 134.28 140.863C133.949 142.438 133.977 144.067 134.361 145.63C134.745 147.193 135.475 148.65 136.498 149.893C137.521 151.136 138.81 152.133 140.27 152.81L173.54 168.11C183.957 172.885 192.896 180.377 199.419 189.799C205.942 199.22 209.809 210.224 210.613 221.655C211.417 233.086 209.129 244.522 203.989 254.764C198.849 265.006 191.046 273.675 181.4 279.862C171.755 286.048 160.621 289.524 149.169 289.924C137.717 290.325 126.368 287.634 116.314 282.136C106.26 276.638 97.8718 268.534 92.0294 258.676C86.187 248.818 83.1062 237.569 83.1104 226.11C83.1104 225.64 83.1104 225.18 83.1104 224.72V80.58C83.474 69.6784 88.0644 59.3459 95.9105 51.7686C103.756 44.1912 114.242 39.9635 125.15 39.98ZM125.15 -0.0200031C103.879 -0.0136366 83.4436 8.25794 68.1567 23.0485C52.8699 37.839 43.9286 57.991 43.2204 79.25C43.2204 79.96 43.1504 80.68 43.1504 81.41V222.79C43.1504 223.17 43.1504 223.54 43.1504 223.92C43.1504 224.66 43.1504 225.41 43.1504 226.16C43.1518 253.523 53.9548 279.78 73.2106 299.221C92.4665 318.662 118.618 329.716 145.98 329.98C203.06 330.51 250.28 284.18 250.79 227.1C250.977 207.076 245.37 187.425 234.644 170.515C223.919 153.605 208.533 140.157 190.34 131.79C199.632 119.638 205.34 105.129 206.818 89.9025C208.296 74.6763 205.486 59.3402 198.704 45.6278C191.922 31.9154 181.44 20.3735 168.441 12.3068C155.443 4.24013 140.448 -0.0296995 125.15 -0.0200031Z" fill="url(#paint0_linear_23_2035)"/>
<path d="M54.3402 224.3C52.7505 224.295 51.1782 224.63 49.7291 225.284C48.2801 225.938 46.9881 226.895 45.9402 228.09L2.94025 276.62C1.49937 278.244 0.558162 280.249 0.22978 282.395C-0.0986028 284.541 0.199817 286.736 1.08916 288.717C1.9785 290.697 3.42093 292.379 5.24301 293.559C7.0651 294.739 9.18929 295.368 11.3602 295.37H11.5502L76.4102 294.37C78.2887 294.344 80.131 293.849 81.7692 292.93C83.4073 292.01 84.7894 290.695 85.7893 289.104C86.7893 287.514 87.3755 285.699 87.4944 283.824C87.6133 281.949 87.2612 280.074 86.4702 278.37L64.6602 230.88C63.7608 228.903 62.3071 227.228 60.4754 226.061C58.6437 224.893 56.5125 224.281 54.3402 224.3Z" fill="url(#paint1_linear_23_2035)"/>
</g>
<defs>
<filter id="filter0_i_23_2035" x="0.100098" y="-0.0200195" width="254.695" height="334.005" filterUnits="userSpaceOnUse" color-interpolation-filters="sRGB">
<feFlood flood-opacity="0" result="BackgroundImageFix"/>
<feBlend mode="normal" in="SourceGraphic" in2="BackgroundImageFix" result="shape"/>
<feColorMatrix in="SourceAlpha" type="matrix" values="0 0 0 0 0 0 0 0 0 0 0 0 0 0 0 0 0 0 127 0" result="hardAlpha"/>
<feOffset dx="4" dy="4"/>
<feGaussianBlur stdDeviation="2"/>
<feComposite in2="hardAlpha" operator="arithmetic" k2="-1" k3="1"/>
<feColorMatrix type="matrix" values="0 0 0 0 0 0 0 0 0 0 0 0 0 0 0 0 0 0 0.3 0"/>
<feBlend mode="normal" in2="shape" result="effect1_innerShadow_23_2035"/>
</filter>
<linearGradient id="paint0_linear_23_2035" x1="181.5" y1="-4.23561e-06" x2="15.5004" y2="299.5" gradientUnits="userSpaceOnUse">
<stop stop-color="#EE5390"/>
<stop offset="0.773299" stop-color="#8632E6"/>
<stop offset="1" stop-color="#0EDAE9"/>
</linearGradient>
<linearGradient id="paint1_linear_23_2035" x1="181.5" y1="1.22696e-05" x2="15.5003" y2="299.5" gradientUnits="userSpaceOnUse">
<stop stop-color="#EE5390"/>
<stop offset="0.773299" stop-color="#8632E6"/>
<stop offset="1" stop-color="#0EDAE9"/>
</linearGradient>
</defs>
</svg>
