<svg width="798" height="255" viewBox="0 0 798 255" fill="none" xmlns="http://www.w3.org/2000/svg">
<path d="M72.3279 23.1358C78.7707 23.1358 84.9496 25.6951 89.5051 30.2509C94.0611 34.8066 96.6205 40.9855 96.6205 47.4283C96.6367 52.7556 94.883 57.9371 91.6347 62.16L78.7597 78.9796C78.1929 79.7183 77.7995 80.5749 77.6087 81.4858C77.4172 82.3968 77.4334 83.339 77.6555 84.243C77.8776 85.1471 78.2999 85.9898 78.8916 86.7087C79.4832 87.4277 80.2288 88.0043 81.0733 88.3959L100.316 97.2453C106.342 100.007 111.512 104.34 115.285 109.79C119.058 115.239 121.294 121.604 121.759 128.215C122.224 134.827 120.901 141.442 117.928 147.365C114.955 153.289 110.442 158.303 104.863 161.882C99.284 165.46 92.8441 167.47 86.2204 167.702C79.5966 167.934 73.0324 166.377 67.2173 163.197C61.4021 160.017 56.5504 155.33 53.1712 149.628C49.792 143.926 48.0101 137.42 48.0125 130.792C48.0125 130.52 48.0125 130.254 48.0125 129.988V46.6185C48.2228 40.3131 50.8779 34.3369 55.416 29.9542C59.9538 25.5715 66.0188 23.1262 72.3279 23.1358ZM72.3279 9.53078e-06C60.0249 0.00369187 48.2052 4.78792 39.3634 13.3427C30.5216 21.8974 25.35 33.5532 24.9404 45.8493C24.9404 46.2599 24.8999 46.6764 24.8999 47.0986V128.872C24.8999 129.092 24.8999 129.306 24.8999 129.525C24.8999 129.953 24.8999 130.387 24.8999 130.821C24.9007 146.648 31.1491 161.835 42.2865 173.079C53.424 184.324 68.5499 190.717 84.3759 190.87C117.391 191.176 144.702 164.379 144.997 131.365C145.105 119.783 141.862 108.417 135.659 98.6363C129.455 88.8557 120.556 81.0775 110.033 76.2381C115.408 69.2094 118.709 60.8175 119.564 52.0106C120.419 43.2039 118.794 34.3336 114.871 26.4024C110.948 18.4712 104.886 11.7955 97.3672 7.12975C89.8492 2.46404 81.1762 -0.0055988 72.3279 9.53078e-06Z" fill="white"/>
<path d="M31.3721 129.745C30.4526 129.742 29.5432 129.936 28.7051 130.314C27.867 130.693 27.1197 131.246 26.5136 131.937L1.64273 160.007C0.80933 160.946 0.264941 162.106 0.0750075 163.347C-0.114927 164.588 0.0576771 165.858 0.572067 167.004C1.08646 168.149 1.92075 169.122 2.97463 169.804C4.02851 170.487 5.25713 170.851 6.51277 170.852H6.62266L44.1373 170.273C45.2238 170.258 46.2894 169.972 47.2369 169.44C48.1843 168.908 48.9837 168.148 49.5621 167.227C50.1405 166.308 50.4795 165.258 50.5483 164.174C50.6171 163.089 50.4134 162.005 49.9559 161.019L37.3411 133.551C36.8209 132.408 35.9801 131.439 34.9207 130.764C33.8612 130.088 32.6286 129.734 31.3721 129.745Z" fill="white"/>
<path d="M252.026 191C236.008 191 222.333 185.333 211 174C199.667 162.667 194 148.992 194 132.974V16.9229H223.013V132.974C223.013 140.983 225.846 147.821 231.513 153.487C237.179 159.154 244.017 161.987 252.026 161.987C259.997 161.987 266.815 159.154 272.482 153.487C278.186 147.821 281.039 140.983 281.039 132.974C281.039 125.003 278.186 118.185 272.482 112.518C266.815 106.814 259.997 103.961 252.026 103.961V74.9486C268.005 74.9486 281.662 80.6341 292.995 92.005C304.366 103.338 310.051 116.995 310.051 132.974C310.051 148.992 304.366 162.667 292.995 174C281.662 185.333 268.005 191 252.026 191ZM384.397 191L326.371 74.9486H355.384L384.397 132.974L413.41 74.9486H442.423L384.397 191ZM516.768 191C500.75 191 487.075 185.333 475.742 174C464.409 162.667 458.742 148.992 458.742 132.974C458.742 116.995 464.409 103.338 475.742 92.005C487.075 80.6341 500.75 74.9486 516.768 74.9486C532.748 74.9486 546.404 80.6341 557.737 92.005C569.108 103.338 574.794 116.995 574.794 132.974H545.781C545.781 125.003 542.929 118.185 537.224 112.518C531.558 106.814 524.739 103.961 516.768 103.961C508.759 103.961 501.922 106.814 496.255 112.518C490.588 118.185 487.755 125.003 487.755 132.974C487.755 140.983 490.588 147.821 496.255 153.487C501.922 159.154 508.759 161.987 516.768 161.987V191ZM591.113 191V132.974C591.113 116.995 596.78 103.338 608.113 92.005C619.446 80.6341 633.122 74.9486 649.139 74.9486C665.119 74.9486 678.775 80.6341 690.108 92.005C701.479 103.338 707.165 116.995 707.165 132.974V191H678.152V132.974C678.152 125.003 675.3 118.185 669.595 112.518C663.929 106.814 657.11 103.961 649.139 103.961C641.13 103.961 634.293 106.814 628.626 112.518C622.96 118.185 620.126 125.003 620.126 132.974V191H591.113ZM781.51 191C765.493 191 751.817 185.333 740.484 174C729.151 162.667 723.485 148.992 723.485 132.974V16.9229H752.497V74.9486H781.51V103.961H752.497V132.974C752.497 140.983 755.331 147.821 760.997 153.487C766.664 159.154 773.502 161.987 781.51 161.987V191Z" fill="white"/>
</svg>
